<?xml version="1.0" encoding="utf-8"?>
<!-- Generator: Adobe Illustrator 25.2.1, SVG Export Plug-In . SVG Version: 6.00 Build 0)  -->
<svg version="1.1" id="Layer_1" xmlns="http://www.w3.org/2000/svg" xmlns:xlink="http://www.w3.org/1999/xlink" x="0px" y="0px"
	 viewBox="0 0 500 500" style="enable-background:new 0 0 500 500;" xml:space="preserve">
<style type="text/css">
	.st0{fill:#E8C4D0;}
	.st1{fill:#F9EAF0;}
	.st2{fill:#FCD9DD;}
	.st3{fill:#6B205B;}
	.st4{fill:#9CAAF2;}
	.st5{fill:#3A0A31;}
	.st6{fill:#3750E2;}
	.st7{opacity:0.65;fill:#3A4FCC;enable-background:new    ;}
	.st8{fill:#FDB2D0;}
	.st9{fill:#F78DBE;}
	.st10{fill:#364FE0;}
	.st11{fill:#3A4FCC;}
	.st12{fill:#F9835A;}
	.st13{fill:#FCAA24;}
	.st14{fill:#FFC46E;}
	.st15{fill:#1F107E;}
	.st16{fill:#EF8EC3;}
	.st17{fill:#F973AA;}
	.st18{fill:#6F69C4;}
	.st19{fill:url(#SVGID_1_);}
	.st20{fill:url(#SVGID_2_);}
	.st21{fill:#617893;}
	.st22{fill:#6A96EF;}
	.st23{fill:#8FB8F9;}
	.st24{fill:#A2C7FC;}
	.st25{fill:#F7C481;}
	.st26{opacity:0.6;fill:#C69C6D;enable-background:new    ;}
	.st27{fill:#426BC6;}
	.st28{fill:#6C90FE;}
	.st29{fill:#5C84EA;}
	.st30{fill:#AAC0F9;}
	.st31{fill:#AFC4F9;}
	.st32{fill:#5E8FDB;}
	.st33{fill:#A0BDF9;}
	.st34{fill:#B295DB;}
	.st35{fill:#F79C8D;}
	.st36{fill:#EF7352;}
	.st37{fill:#F9D298;}
	.st38{fill:#A265CE;}
</style>
<path class="st0" d="M492.5,300.95c-12.96-29.31-52.2-51.41-59.4-84.97c-7.2-33.57,7.56-81.43-44.28-110.23
	s-133.56-31.68-151.74,10.08s-89.71,1.83-140.13,41.74c-48.87,38.68-72.09,98.2-72.09,183.71c0,27.97,21.75,53.14,29.71,70.83
	h415.87C487.36,356.67,501.85,322.09,492.5,300.95z"/>
<path class="st1" d="M468.85,230.3c0,3.88-4.49,7.03-10.04,7.03c-5.54,0-10.04-3.15-10.04-7.03s4.49-7.03,10.04-7.03
	C464.35,223.27,468.85,226.42,468.85,230.3z"/>
<ellipse class="st1" cx="444.76" cy="195.43" rx="14.05" ry="11.01"/>
<ellipse transform="matrix(0.6478 -0.7618 0.7618 0.6478 -196.9029 104.5497)" class="st1" cx="14.62" cy="265.22" rx="8.24" ry="8.24"/>
<ellipse class="st1" cx="192.98" cy="117.34" rx="11.41" ry="8.24"/>
<path class="st2" d="M17.86,248.68c0.97-4.17,2.14-8.3,3.43-12.38c1.28-4.09,2.69-8.14,4.19-12.16c1.51-4.02,3.12-8,4.85-11.94
	c0.85-1.98,1.76-3.93,2.67-5.88l1.4-2.91c0.47-0.97,0.96-1.93,1.45-2.89c0.48-0.97,0.99-1.92,1.49-2.87c0.5-0.96,1-1.91,1.53-2.85
	c0.52-0.95,1.04-1.89,1.58-2.83l1.64-2.8c2.21-3.72,4.59-7.36,7.09-10.92l1.93-2.64c0.32-0.44,0.66-0.87,0.99-1.3l1.01-1.29
	c0.34-0.43,0.67-0.86,1.01-1.29l1.05-1.26c0.71-0.84,1.39-1.7,2.13-2.51c0.73-0.82,1.46-1.64,2.21-2.44l2.31-2.37
	c0.38-0.4,0.77-0.76,1.16-1.15l1.16-1.13c0.77-0.76,1.56-1.49,2.35-2.24c3.17-2.95,6.43-5.81,9.8-8.56l2.56-2.02l2.61-1.97
	c1.76-1.29,3.53-2.57,5.35-3.77c3.64-2.41,7.39-4.68,11.3-6.67c0.97-0.52,1.96-0.99,2.95-1.46c0.98-0.49,1.99-0.93,2.99-1.37
	c0.5-0.21,1-0.45,1.51-0.65l1.53-0.61c0.51-0.2,1.01-0.42,1.53-0.6l1.55-0.56c1.03-0.39,2.07-0.72,3.12-1.05
	c1.04-0.35,2.1-0.63,3.16-0.93c1.05-0.31,2.12-0.55,3.18-0.81c1.06-0.28,2.14-0.47,3.21-0.69c1.07-0.23,2.15-0.39,3.23-0.57
	c1.07-0.19,2.16-0.32,3.24-0.45c1.08-0.15,2.17-0.22,3.25-0.32c1.08-0.11,2.17-0.16,3.25-0.21c4.34-0.19,8.68-0.07,12.97,0.35
	c1.07,0.11,2.14,0.2,3.21,0.36l1.6,0.22c0.53,0.07,1.06,0.15,1.59,0.25c1.06,0.19,2.12,0.36,3.17,0.57s2.1,0.44,3.14,0.66
	c-1.07-0.03-2.14-0.07-3.2-0.12c-1.07-0.04-2.13-0.04-3.2-0.06c-1.06-0.04-2.13,0-3.19,0c-0.53,0.01-1.06,0-1.59,0.02l-1.59,0.05
	c-4.23,0.15-8.43,0.51-12.58,1.13c-8.3,1.22-16.36,3.47-23.97,6.73l-1.43,0.61c-0.48,0.2-0.94,0.43-1.41,0.65l-1.41,0.66
	c-0.47,0.21-0.93,0.46-1.39,0.69l-1.39,0.7c-0.46,0.23-0.91,0.49-1.37,0.73c-0.91,0.49-1.83,0.97-2.72,1.5
	c-3.59,2.07-7.09,4.3-10.48,6.72c-3.39,2.41-6.7,4.95-9.9,7.63c-3.22,2.67-6.35,5.45-9.41,8.32c-0.77,0.72-1.54,1.42-2.3,2.16
	l-1.14,1.09c-0.37,0.36-0.77,0.73-1.12,1.09l-2.17,2.2c-0.71,0.75-1.39,1.52-2.1,2.27c-2.78,3.06-5.41,6.29-7.93,9.6
	c-2.51,3.33-4.9,6.78-7.22,10.27l-1.71,2.65c-0.57,0.88-1.11,1.79-1.67,2.67c-0.57,0.89-1.11,1.79-1.65,2.69
	c-0.54,0.9-1.09,1.8-1.62,2.72l-1.59,2.73l-1.57,2.75c-1.02,1.85-2.04,3.7-3.05,5.56c-2,3.73-3.94,7.5-5.83,11.3
	C24.84,233.1,21.26,240.83,17.86,248.68z"/>
<path class="st2" d="M260.84,80.26c2.03-0.95,4.14-1.73,6.26-2.48c2.13-0.73,4.28-1.37,6.45-1.98c1.09-0.29,2.17-0.6,3.27-0.84
	l1.64-0.39l1.65-0.36c1.1-0.25,2.21-0.46,3.32-0.67c1.11-0.22,2.22-0.4,3.33-0.59c4.46-0.72,8.95-1.21,13.47-1.48l1.69-0.1
	l0.85-0.05l0.85-0.02l3.39-0.09h3.4h0.85l0.85,0.02l1.7,0.06l1.7,0.06c0.57,0.02,1.13,0.07,1.7,0.1c1.13,0.07,2.26,0.13,3.39,0.22
	c2.26,0.22,4.52,0.4,6.76,0.72l1.69,0.22l0.84,0.11c0.28,0.04,0.56,0.09,0.84,0.13l3.36,0.55l0.84,0.14l0.83,0.16l1.67,0.33
	l1.67,0.33c0.56,0.11,1.11,0.22,1.67,0.35c2.21,0.52,4.43,0.99,6.61,1.62l3.29,0.89l3.25,1c2.18,0.64,4.3,1.44,6.45,2.18
	c1.08,0.36,2.13,0.79,3.18,1.2l3.17,1.24c1.05,0.43,2.08,0.9,3.13,1.34l1.56,0.68c0.52,0.23,1.04,0.44,1.55,0.7l3.07,1.47l1.54,0.74
	l1.51,0.79l3.01,1.6c0.99,0.56,1.97,1.14,2.96,1.71l1.48,0.86c0.49,0.29,0.97,0.61,1.45,0.91l2.88,1.85
	c3.77,2.58,7.42,5.35,10.83,8.41c3.41,3.06,6.56,6.42,9.4,10.03c0.35,0.45,0.72,0.89,1.06,1.36l1,1.4c0.33,0.47,0.67,0.93,0.99,1.41
	l0.93,1.45c0.31,0.49,0.63,0.96,0.92,1.45l0.86,1.49l0.43,0.74l0.21,0.37l0.2,0.38l0.79,1.53c2.07,4.08,3.73,8.35,4.96,12.73
	c1.22,4.38,2.11,8.82,2.7,13.27c0.31,2.23,0.56,4.46,0.8,6.68c0.23,2.23,0.47,4.45,0.78,6.67c-0.58-2.17-1.02-4.37-1.49-6.56
	c-0.45-2.19-0.89-4.39-1.39-6.56c-0.24-1.09-0.51-2.17-0.77-3.25c-0.13-0.54-0.28-1.08-0.41-1.61c-0.14-0.54-0.27-1.08-0.43-1.61
	c-0.31-1.07-0.6-2.13-0.95-3.18c-0.17-0.53-0.33-1.06-0.51-1.58l-0.55-1.56c-2.94-8.32-7.36-16.02-13.02-22.65
	c-0.71-0.83-1.4-1.67-2.17-2.45l-1.12-1.19l-0.56-0.59l-0.59-0.57c-0.79-0.75-1.56-1.53-2.36-2.27l-2.46-2.17
	c-3.35-2.81-6.88-5.4-10.55-7.79l-2.8-1.73c-0.47-0.29-0.93-0.59-1.4-0.86l-1.43-0.81c-0.96-0.54-1.91-1.09-2.87-1.61l-2.93-1.51
	l-1.46-0.76l-1.49-0.71l-2.99-1.41c-0.49-0.24-1.01-0.45-1.51-0.67l-1.52-0.65c-1.01-0.43-2.02-0.88-3.04-1.3l-3.08-1.22
	c-1.03-0.4-2.05-0.82-3.09-1.18c-2.08-0.73-4.15-1.51-6.26-2.15l-3.15-1.01l-3.18-0.91c-1.06-0.3-2.12-0.62-3.19-0.87l-3.21-0.81
	c-0.53-0.14-1.07-0.26-1.61-0.38l-1.62-0.35l-1.62-0.35l-0.81-0.17l-0.81-0.15l-3.25-0.61c-0.27-0.05-0.54-0.11-0.81-0.15
	l-0.82-0.13l-1.64-0.26c-2.18-0.38-4.37-0.61-6.56-0.9c-1.1-0.12-2.2-0.22-3.3-0.33c-0.55-0.05-1.1-0.12-1.65-0.16L313.61,75
	l-1.65-0.12l-0.83-0.06l-0.83-0.04l-3.32-0.15l-3.32-0.06l-0.83-0.01H302l-1.66,0.01c-4.43,0.04-8.86,0.26-13.28,0.68
	c-1.1,0.11-2.21,0.2-3.31,0.34c-1.1,0.13-2.21,0.25-3.31,0.42l-1.65,0.23l-1.65,0.27c-1.1,0.17-2.19,0.37-3.29,0.56
	c-2.19,0.41-4.37,0.86-6.54,1.39C265.13,78.97,262.97,79.56,260.84,80.26z"/>
<path class="st3" d="M199.04,336.1c0,0,36.32-54.69,51.86-63.58c15.54-8.89,38.48-17.06,60.9-6.69
	c22.42,10.37,25.76,24.43,34.46,45.51s-6.36,90.62-6.36,90.62l-117.78,0.05L199.04,336.1z"/>
<path class="st4" d="M284.22,282.84c-5.2,0-11.08-2.39-13.43-7.15c-1.25-2.54-1.6-4.55-1.04-5.96c0.42-1.06,1.21-1.37,1.25-1.38
	l0.26,0.7l-0.13-0.35l0.14,0.35c-0.02,0.01-0.54,0.23-0.83,0.98c-0.32,0.83-0.4,2.43,1.03,5.32c2.66,5.41,10.19,7.56,15.64,6.46
	c5.07-1.03,14.33-5.65,16.24-9.69c1.25-2.64,1.5-4.35,0.82-5.56c-0.69-1.22-2.4-1.95-5.22-2.23l0.07-0.75
	c3.08,0.3,4.98,1.15,5.8,2.6c1.04,1.84,0.12,4.3-0.8,6.25c-2.04,4.3-11.43,9.02-16.77,10.11
	C286.3,282.74,285.27,282.84,284.22,282.84z"/>
<path class="st5" d="M341.69,355.34c0,0-36.91-10.54-50.29-5.86c-13.38,4.68-40.82,4.02-45.95-7.36c-5.13-11.38,3.19-34.8,3.19-34.8
	c-8.12,20.24-9.2,35.31-6.7,46.48l1.36,46.14l95.28,1.86l-14.2-38.91L341.69,355.34z"/>
<path class="st6" d="M351.38,354.7c-0.12,6.55-0.46,12.79-0.9,18.42c-1.23,15.76-3.24,26.83-3.24,26.83l-25.96-4.56l-52.55-9.24l0,0
	c0,0,66.17,10.27,75.2,0C347.91,381.62,350.14,368.25,351.38,354.7z"/>
<path class="st7" d="M250.93,362.91c21.82,0.3,59.21,2.3,59.21,2.3l-2.58-71.19c0.05,0.82,0.11,1.65,0.19,2.51
	c2.01,20.58,7.53,74.28,7.53,74.28L250.93,362.91z"/>
<path class="st8" d="M278.71,365.36l-1.57,22.27l-5.29-1.34l-8.5-2.15l-2.21-0.56l-2.59-0.66l-20.37,1.89l-4,0.37
	c0,0-2.52-1.48-4.99-3.83c-3.95-3.78-7.78-9.8-0.87-15.58c8.42-7.03,14.98-6.46,21.26-5.1c2.08,0.45,9.77,2.91,9.77,2.91l2.66,0.24
	l2.21,0.2L278.71,365.36z"/>
<path class="st9" d="M271.84,386.29l-13.3-3.37l-20.37,1.89l3.93-5.26c0,0,14.76,2.19,17.82-1.51c0,0,2.48,2.7,8.8,2.15
	C273.15,379.81,272.58,383.83,271.84,386.29z"/>
<path class="st9" d="M263.17,376.85c-0.67,3.17-0.13,6.04,0.18,7.28l-2.21-0.56l0.87-19.75l2.21,0.2l-0.32,3.35
	C271.04,373.38,263.17,376.85,263.17,376.85z"/>
<path class="st3" d="M351.38,354.7c-0.12,6.55-0.46,12.79-0.9,18.42c-0.38,4.91-0.84,9.36-1.29,13.17c-1,8.41-1.95,13.66-1.95,13.66
	l-11.67-2.05l-14.29-2.51l-54.89-9.65l1.75-21.95l47.15,7.03c0,0-5.52-53.7-7.53-74.29c-2.01-20.58,7.53-28.61,7.53-28.61
	C346.26,276.69,352,320.03,351.38,354.7z"/>
<path class="st10" d="M349.19,386.29c-1,8.41-1.95,13.66-1.95,13.66l-11.67-2.05C340.32,396.04,346.05,392.6,349.19,386.29z"/>
<path class="st11" d="M315.51,370c0,0,15.32-0.49,17.6,8.63C333.11,378.63,328.87,372.77,315.51,370z"/>
<path class="st11" d="M312.65,371.04c0,0,15.23,1.68,16.2,11.03C328.85,382.08,325.49,375.68,312.65,371.04z"/>
<polygon class="st4" points="270.82,364.26 269.51,386.29 270.82,386.52 272,364.36 "/>
<polygon class="st4" points="274.08,364.67 272.76,386.86 274.07,387.09 275.26,364.85 "/>
<path class="st12" d="M258.55,382.92c0,0-0.96-10.29,0.8-19.33l4.55,0.42c0,0-2.38,16.55-1.2,19.97L258.55,382.92z"/>
<path class="st13" d="M258.94,382.35c0,0-0.89-10.23,0.63-18.09l3.96,0.36c0,0-2.43,15.72-1.39,18.69L258.94,382.35z"/>
<ellipse class="st12" cx="260.81" cy="371.98" rx="5.92" ry="4.87"/>
<ellipse class="st13" cx="260.81" cy="371.98" rx="5.26" ry="4.33"/>
<path class="st14" d="M256.51,370.42c0,0,0.93-2.43,4.58-2.52C261.09,367.9,258.71,368.22,256.51,370.42z"/>
<polygon class="st12" points="259.93,369.43 259.93,372.94 265.06,372.63 260.29,372.63 "/>
<path class="st12" d="M261.18,378.9l-1.84-0.16c-0.15-0.01-0.27-0.15-0.25-0.3l0.02-0.2c0.01-0.15,0.15-0.27,0.3-0.25l1.84,0.16
	c0.15,0.01,0.27,0.15,0.25,0.3l-0.02,0.2C261.46,378.8,261.33,378.91,261.18,378.9z"/>
<path class="st12" d="M262.31,365.67l-1.84-0.16c-0.15-0.01-0.27-0.15-0.25-0.3l0.02-0.2c0.01-0.15,0.15-0.27,0.3-0.25l1.84,0.16
	c0.15,0.01,0.27,0.15,0.25,0.3l-0.02,0.2C262.6,365.57,262.47,365.69,262.31,365.67z"/>
<path class="st12" d="M262.21,366.84l-1.84-0.16c-0.15-0.01-0.27-0.15-0.25-0.3l0.02-0.2c0.01-0.15,0.15-0.27,0.3-0.25l1.84,0.16
	c0.15,0.01,0.27,0.15,0.25,0.3l-0.02,0.2C262.5,366.74,262.37,366.86,262.21,366.84z"/>
<path class="st12" d="M261.18,380l-1.84-0.16c-0.15-0.01-0.27-0.15-0.25-0.3l0.02-0.2c0.01-0.15,0.15-0.27,0.3-0.25l1.84,0.16
	c0.15,0.01,0.27,0.15,0.25,0.3l-0.02,0.2C261.46,379.9,261.33,380.02,261.18,380z"/>
<path class="st12" d="M261.18,381.1l-1.84-0.16c-0.15-0.01-0.27-0.15-0.25-0.3l0.02-0.2c0.01-0.15,0.15-0.27,0.3-0.25l1.84,0.16
	c0.15,0.01,0.27,0.15,0.25,0.3l-0.02,0.2C261.46,381.01,261.33,381.12,261.18,381.1z"/>
<path class="st12" d="M261.18,382.21l-1.84-0.16c-0.15-0.01-0.27-0.15-0.25-0.3l0.02-0.2c0.01-0.15,0.15-0.27,0.3-0.25l1.84,0.16
	c0.15,0.01,0.27,0.15,0.25,0.3l-0.02,0.2C261.46,382.11,261.33,382.22,261.18,382.21z"/>
<path class="st15" d="M296.03,249.28c0,0,26.77-23.59,9.7-52.87l-15.38,26.85L296.03,249.28z"/>
<path class="st8" d="M281.77,280.05c-6.8-1.05-9.34-5.41-10.25-7.98c-0.4-1.12-0.49-1.9-0.49-1.9l-0.13-0.51l0,0l-0.66-2.48
	l-0.36-1.37l-1.33-5.03l-2.86-10.79l-0.23-0.85l27.86-12.38c0,0,0.36,1.99,0.99,4.94c0.37,1.75,0.82,3.83,1.35,6.05
	c1.7,7.18,4.12,15.68,6.45,18.15c0.05,0.05,0.1,0.1,0.14,0.16C306.02,270.65,291.44,281.54,281.77,280.05z"/>
<path class="st16" d="M295.13,245.51c-2.64,8.76-14.45,23.37-19.12,23.18c-2.54-0.1-4.62-1.45-6.13-2.9l-1.33-5.03
	c4.85-4.76,20.43-19.6,25.76-19.09C294.67,243.43,294.6,243.3,295.13,245.51z"/>
<path class="st8" d="M302.65,219.85c-0.02,1.38-0.09,2.77-0.21,4.17c-0.47,5.38-1.65,10.46-3.41,15.09
	c-5.91,15.58-18.28,25.93-31.61,24.76c-9.15-0.8-16.92-6.86-21.89-15.87c-2.63-4.76-4.48-10.34-5.35-16.4
	c-0.31-2.13-0.49-4.32-0.55-6.57c-0.05-2.12,0.01-4.29,0.21-6.49c0.12-1.32,0.27-2.62,0.48-3.9c3.34-21.56,18.23-37.37,34.55-35.95
	C291.11,180.13,303,198.15,302.65,219.85z"/>
<path class="st9" d="M302.65,219.85c-0.02,1.38-0.09,2.77-0.21,4.17c-0.47,5.38-1.65,10.46-3.41,15.09
	c-30.47-21.34-24.4-42.7-24.4-42.7L302.65,219.85z"/>
<path class="st9" d="M273.92,193.34c0,0-7.7,25.21-19.81,30.45c-5.13,2.22-10.26,2.11-14.48,1.25c-0.05-2.13,0.01-4.29,0.2-6.49
	c0.12-1.32,0.27-2.62,0.48-3.9L273.92,193.34z"/>
<path class="st15" d="M278.8,187.21c0,0-18.4,32.46-40.82,35.8c-22.42,3.35-11.38-27.44,5.02-38.15
	C259.39,174.16,283.15,166.8,278.8,187.21z"/>
<path class="st15" d="M275.87,180.43c-0.79,0.01-4.77,19.16,1.59,32.88s25.43,25.43,25.43,25.43S326.65,179.51,275.87,180.43z"/>
<path class="st15" d="M275.31,187.08c0,0-11.76-35.39,15.91-32.74c41.53,3.97,50.26,38.76,5.48,47.73"/>
<path class="st8" d="M283.49,224.91c0,0,0.68-15.7,6.52-14.32c5.84,1.39,9.35,15.03,4.73,19.14c-4.63,4.11-8.21,1.56-8.21,1.56
	L283.49,224.91z"/>
<path class="st13" d="M274.12,174.43c0,0,12.37-1.75,23.44,7.48c11.1,9.25,10.11,17.09,10.11,17.09S303.43,179.48,274.12,174.43z"/>
<path class="st17" d="M287.04,216.32c0,0,1.44-3.79,3.35-3.01s6.03,6.71,4.58,10.72s-3.82,3.56-3.82,3.56s4.15-3.21,2.7-7.18
	S289.82,213.2,287.04,216.32z"/>
<path class="st15" d="M275.91,173.56c0,0-6.16-8.39-2.32-14.9C273.59,158.66,270.64,163.58,275.91,173.56z"/>
<path class="st15" d="M321.74,194.01c0,0-8.88,5.31-13.44-0.39C308.29,193.62,311.73,197.99,321.74,194.01z"/>
<path class="st15" d="M307.63,227.6c0.17,1.89-0.02,3.78-0.36,5.64c-0.35,1.86-0.9,3.68-1.57,5.45c-0.37,0.87-0.71,1.76-1.15,2.6
	c-0.22,0.42-0.41,0.86-0.65,1.27l-0.73,1.22c-0.13,0.2-0.25,0.4-0.38,0.6l-0.41,0.58c-0.28,0.39-0.54,0.78-0.83,1.16
	c-0.58,0.75-1.2,1.46-1.82,2.17l-0.04-0.03c0.26-0.4,0.53-0.78,0.8-1.17s0.55-0.76,0.8-1.16c0.24-0.4,0.5-0.79,0.76-1.19l0.38-0.59
	c0.12-0.2,0.23-0.41,0.35-0.61l0.71-1.21c0.24-0.4,0.44-0.83,0.66-1.24c0.46-0.82,0.82-1.68,1.22-2.53c0.71-1.73,1.3-3.52,1.69-5.36
	c0.39-1.83,0.65-3.71,0.54-5.59L307.63,227.6z"/>
<path class="st15" d="M309.21,227.38l-0.43-0.18c4.88-11.61,3.06-20.06,0.66-25.1c-2.59-5.47-6.39-8.23-6.43-8.25l0.27-0.38
	c0.04,0.03,3.92,2.84,6.57,8.41C312.3,207,314.17,215.59,309.21,227.38z"/>
<path class="st18" d="M265.58,178.62c-3.72,1.4-7.37,2.96-10.94,4.72c-1.78,0.87-3.54,1.79-5.26,2.78s-3.4,2.04-4.99,3.21
	c-1.59,1.17-3.12,2.44-4.43,3.91c-0.65,0.74-1.28,1.51-1.88,2.29c-0.61,0.78-1.19,1.58-1.75,2.4c-1.12,1.63-2.15,3.32-3.06,5.08
	c-0.9,1.76-1.7,3.57-2.25,5.46c-0.28,0.94-0.5,1.9-0.61,2.87c-0.09,0.96-0.1,1.96,0.23,2.84c0.04,0.11,0.08,0.22,0.14,0.32
	c0.05,0.1,0.11,0.21,0.17,0.28c0.13,0.16,0.31,0.28,0.52,0.38c0.41,0.2,0.89,0.3,1.37,0.37c0.96,0.13,1.95,0.11,2.93,0.03
	c1.96-0.16,3.91-0.56,5.81-1.1c1.9-0.54,3.76-1.22,5.57-2.02c3.61-1.61,7.01-3.74,9.97-6.37c1.48-1.31,2.85-2.76,4.06-4.33
	c1.22-1.57,2.27-3.26,3.16-5.03c-1.67,3.61-4.14,6.84-7.07,9.53c-2.95,2.69-6.35,4.86-9.97,6.53c-1.81,0.83-3.69,1.53-5.61,2.08
	s-3.88,0.97-5.88,1.14c-1,0.08-2.01,0.11-3.02-0.03c-0.5-0.07-1.01-0.18-1.5-0.4c-0.24-0.12-0.48-0.27-0.67-0.5
	c-0.1-0.12-0.15-0.24-0.22-0.36s-0.11-0.24-0.16-0.36c-0.37-0.99-0.36-2.04-0.27-3.05c0.11-1.01,0.33-1.99,0.61-2.95
	c0.58-1.92,1.39-3.76,2.31-5.53s1.97-3.48,3.11-5.11c0.57-0.82,1.16-1.62,1.77-2.41c0.61-0.79,1.24-1.56,1.9-2.31
	c0.66-0.76,1.4-1.44,2.15-2.1c0.39-0.32,0.76-0.64,1.16-0.94c0.2-0.15,0.39-0.31,0.59-0.46l0.61-0.44c1.62-1.16,3.33-2.2,5.06-3.18
	s3.51-1.88,5.31-2.73c1.8-0.85,3.62-1.64,5.46-2.4C261.85,179.98,263.7,179.26,265.58,178.62z"/>
<path class="st15" d="M262.77,176.62c-1.89,0.17-3.75,0.54-5.58,0.99c-1.83,0.46-3.64,1.02-5.4,1.69
	c-3.53,1.33-6.92,3.02-10.05,5.12c-0.8,0.5-1.55,1.06-2.32,1.61c-0.74,0.58-1.51,1.13-2.22,1.75c-0.36,0.31-0.73,0.6-1.08,0.92
	l-1.05,0.95c-0.36,0.31-0.68,0.66-1.02,0.98l-0.51,0.49c-0.17,0.16-0.34,0.33-0.5,0.5c-0.64,0.69-1.31,1.36-1.91,2.09
	c-0.31,0.36-0.62,0.71-0.92,1.07l-0.88,1.11l-0.44,0.55c-0.14,0.19-0.28,0.38-0.42,0.57l-0.84,1.14l-0.21,0.29l-0.2,0.29l-0.39,0.59
	l-0.8,1.18c0.5-0.81,0.97-1.63,1.5-2.42l0.8-1.18c0.13-0.2,0.26-0.39,0.4-0.59l0.42-0.57l0.86-1.14c0.29-0.37,0.6-0.73,0.9-1.1
	c0.59-0.74,1.24-1.44,1.88-2.14c1.3-1.39,2.67-2.71,4.13-3.92c0.71-0.63,1.48-1.19,2.22-1.78c0.77-0.55,1.53-1.13,2.33-1.64
	c1.59-1.04,3.24-2,4.94-2.84s3.45-1.6,5.24-2.23C255.25,177.72,258.98,176.81,262.77,176.62z"/>
<radialGradient id="SVGID_1_" cx="273.99" cy="263.83" r="8.62" gradientTransform="matrix(1 0 0 -1 0 502)" gradientUnits="userSpaceOnUse">
	<stop  offset="0" style="stop-color:#F973B4"/>
	<stop  offset="1" style="stop-color:#FDB2D0"/>
</radialGradient>
<circle class="st19" cx="273.99" cy="238.17" r="8.62"/>
<radialGradient id="SVGID_2_" cx="245.895" cy="262.435" r="7.2085" gradientTransform="matrix(1 0 0 -1 0 502)" gradientUnits="userSpaceOnUse">
	<stop  offset="0" style="stop-color:#F981BB"/>
	<stop  offset="1" style="stop-color:#FDB2D0"/>
</radialGradient>
<path class="st20" d="M251.62,239.75c0,3.89-2.57,7.17-6.1,8.25c-2.63-4.76-4.48-10.33-5.35-16.4c0.89-0.31,1.84-0.47,2.83-0.47
	C247.76,231.13,251.62,234.99,251.62,239.75z"/>
<path class="st9" d="M252.55,230.86c-0.76-0.62-1.56-1.14-2.4-1.51s-1.74-0.55-2.61-0.47c-0.88,0.07-1.73,0.41-2.51,0.9
	c-0.79,0.48-1.51,1.12-2.23,1.78c0.47-0.87,1.1-1.66,1.89-2.29c0.78-0.63,1.75-1.09,2.78-1.17c1.03-0.09,2.07,0.19,2.94,0.7
	C251.28,229.31,252.03,230.01,252.55,230.86z"/>
<path class="st9" d="M268.73,228.63c-0.76-0.62-1.56-1.14-2.4-1.51s-1.74-0.55-2.61-0.47c-0.88,0.07-1.73,0.41-2.51,0.9
	c-0.79,0.48-1.51,1.12-2.23,1.78c0.47-0.87,1.1-1.66,1.89-2.29c0.78-0.63,1.75-1.09,2.78-1.17c1.03-0.09,2.07,0.19,2.94,0.7
	C267.45,227.09,268.2,227.79,268.73,228.63z"/>
<path class="st9" d="M256.7,233.59c-0.48,1.31-0.92,2.64-1.32,3.97c-0.19,0.67-0.38,1.33-0.53,2.01c-0.16,0.67-0.29,1.35-0.37,2.03
	s-0.11,1.37-0.01,2.02c0.09,0.65,0.39,1.28,0.96,1.56s1.28,0.23,1.95,0.09s1.33-0.38,1.98-0.64c-0.6,0.35-1.25,0.64-1.92,0.86
	c-0.34,0.1-0.69,0.17-1.06,0.19c-0.36,0.02-0.74-0.03-1.1-0.18s-0.66-0.43-0.86-0.76s-0.31-0.69-0.38-1.05
	c-0.13-0.72-0.1-1.45-0.02-2.15c0.18-1.41,0.56-2.77,1.02-4.1C255.5,236.13,256.05,234.84,256.7,233.59z"/>
<path class="st15" d="M288.5,152.95c3.09-0.3,6.22-0.17,9.3,0.21c1.55,0.18,3.08,0.47,4.59,0.82c0.76,0.17,1.51,0.37,2.26,0.58
	c0.75,0.22,1.49,0.44,2.23,0.7c1.47,0.52,2.92,1.11,4.31,1.81c1.39,0.69,2.77,1.44,4.05,2.33c2.6,1.72,4.91,3.86,6.88,6.25
	c-1.07-1.12-2.14-2.24-3.35-3.21l-0.44-0.38l-0.46-0.36l-0.91-0.71c-0.64-0.44-1.25-0.9-1.91-1.3c-2.6-1.67-5.4-3-8.32-4
	c-2.9-1.05-5.93-1.72-8.98-2.19c-1.53-0.23-3.07-0.39-4.61-0.49C291.6,152.92,290.05,152.89,288.5,152.95z"/>
<path class="st16" d="M281.77,280.05c-6.8-1.05-9.34-5.41-10.25-7.98c1.79,2,6.43,6.53,11.76,6.68c6.84,0.19,14.56-5.69,14.56-5.69
	s3.92-3.98,4.4-7.03C306.02,270.65,291.44,281.54,281.77,280.05z"/>
<path class="st12" d="M295.28,232.05c0,2.38-1.33,4.31-2.98,4.31c-1.34,0-2.47-1.27-2.85-3.02l0,0c-0.09-0.4-0.14-0.83-0.14-1.28
	c0-2.38,1.33-4.3,2.98-4.3c1.1,0,2.06,0.86,2.58,2.14v0.01C295.13,230.52,295.28,231.26,295.28,232.05z"/>
<path class="st13" d="M295.01,231.16c0,2.38-1.34,4.31-2.98,4.31c-1.1,0-2.06-0.86-2.58-2.14l0,0c-0.09-0.4-0.14-0.83-0.14-1.28
	c0-2.38,1.33-4.3,2.98-4.3c1.1,0,2.06,0.86,2.58,2.14v0.01C294.96,230.29,295.01,230.72,295.01,231.16z"/>
<path class="st21" d="M102.23,367.18c0.04-1.58-0.04-3.12-0.15-4.67c-0.12-1.55-0.29-3.09-0.51-4.63c-0.44-3.07-1.08-6.12-1.91-9.11
	s-1.86-5.92-3.09-8.77c-1.22-2.85-2.67-5.6-4.3-8.24c-3.27-5.27-7.39-10.01-12.17-13.94c-1.2-0.98-2.42-1.93-3.7-2.81
	c-0.63-0.45-1.28-0.87-1.93-1.29c-0.32-0.21-0.66-0.41-0.98-0.61c-0.33-0.2-0.65-0.41-0.99-0.6c-2.67-1.57-5.45-2.94-8.3-4.12
	c2.85,1.21,5.61,2.6,8.26,4.19c0.34,0.19,0.66,0.41,0.98,0.61c0.33,0.21,0.66,0.41,0.98,0.62c0.64,0.43,1.29,0.85,1.91,1.31
	c1.26,0.89,2.47,1.85,3.66,2.83c4.73,3.97,8.78,8.73,11.98,13.99c1.6,2.64,3,5.39,4.19,8.23s2.19,5.76,2.98,8.74
	c0.8,2.97,1.4,6,1.81,9.05c0.2,1.53,0.36,3.06,0.46,4.59s0.15,3.08,0.1,4.59v0.01c-0.01,0.2,0.15,0.36,0.34,0.37
	C102.06,367.53,102.23,367.38,102.23,367.18L102.23,367.18z"/>
<path class="st22" d="M100.98,356.32c0,0-12.87-11.83-15.46-3.34C83.45,359.75,100.98,356.32,100.98,356.32z"/>
<path class="st23" d="M100.97,356.38c0,0,4.45-16.9,11.22-11.15C117.59,349.81,100.97,356.38,100.97,356.38z"/>
<path class="st22" d="M97.95,344.33c0,0-12.9-10.36-14.82-2.17C81.61,348.67,97.95,344.33,97.95,344.33z"/>
<path class="st23" d="M97.95,344.34c0,0,3.14-16.24,9.89-11.24C113.22,337.09,97.95,344.34,97.95,344.34z"/>
<path class="st22" d="M93.2,333.67c0,0-14.69-7.61-14.95,0.8C78.04,341.16,93.2,333.67,93.2,333.67z"/>
<path class="st23" d="M93.2,333.64c0,0-0.13-16.54,7.48-12.97C106.74,323.51,93.2,333.64,93.2,333.64z"/>
<path class="st22" d="M76.75,315.35c0,0-11.54-1.01-9.47,4.5C68.93,324.24,76.75,315.35,76.75,315.35z"/>
<path class="st23" d="M76.75,315.36c0,0-4.5-10.68,1.39-10.39C82.82,305.19,76.75,315.36,76.75,315.36z"/>
<path class="st22" d="M84.9,322.41c0,0-12.97-3.99-11.95,2.83C73.77,330.67,84.9,322.41,84.9,322.41z"/>
<path class="st23" d="M84.84,322.46c0,0-2.53-13.33,4.13-11.56C94.28,312.31,84.84,322.46,84.84,322.46z"/>
<path class="st24" d="M71.63,311.99c0,0-7.41-7.31-9.13-2.31C61.13,313.66,71.63,311.99,71.63,311.99z"/>
<path class="st13" d="M119.44,363.7l-6.17,32.83l-0.37,1.97H87.76l-6.54-34.8c-0.2-1.05-0.01-2.07,0.44-2.93
	c0.75-1.42,2.23-2.41,3.99-2.41h29.36C117.84,358.36,119.97,360.92,119.44,363.7z"/>
<path class="st12" d="M113.28,396.53l-0.37,1.97H87.76l-6.54-34.8c-0.2-1.05-0.01-2.07,0.44-2.93c1.24,5.39,4.72,18.53,10.46,25.66
	C97.22,392.76,107.47,395.46,113.28,396.53z"/>
<path class="st25" d="M101.35,359.76c0,0,14.2-0.62,15.35,0s1.59,2.91,1.59,2.91l-1.68,7.41c0,0,1.24-7.23,0.44-8.47
	C116.26,360.38,101.35,359.76,101.35,359.76z"/>
<path class="st26" d="M102.63,372.33c0,0.48-0.28,0.87-0.62,0.87c-0.34,0-0.62-0.39-0.62-0.87c0-0.48,0.28-0.87,0.62-0.87
	C102.35,371.47,102.63,371.85,102.63,372.33z"/>
<path class="st26" d="M107.24,364.37c0,0.48-0.28,0.87-0.62,0.87c-0.34,0-0.62-0.39-0.62-0.87s0.28-0.87,0.62-0.87
	S107.24,363.89,107.24,364.37z"/>
<path class="st26" d="M104.89,380.32c0,0.48-0.28,0.87-0.62,0.87c-0.34,0-0.62-0.39-0.62-0.87c0-0.48,0.28-0.87,0.62-0.87
	S104.89,379.84,104.89,380.32z"/>
<path class="st26" d="M89.97,369.22c0,0.48-0.28,0.87-0.62,0.87s-0.62-0.39-0.62-0.87c0-0.48,0.28-0.87,0.62-0.87
	S89.97,368.74,89.97,369.22z"/>
<path class="st26" d="M96.06,385.17c0,0.48-0.28,0.87-0.62,0.87s-0.62-0.39-0.62-0.87c0-0.48,0.28-0.87,0.62-0.87
	S96.06,384.69,96.06,385.17z"/>
<path class="st26" d="M99.94,393.88c0,0.48-0.28,0.87-0.62,0.87s-0.62-0.39-0.62-0.87c0-0.48,0.28-0.87,0.62-0.87
	S99.94,393.4,99.94,393.88z"/>
<path class="st26" d="M100.33,381.74c0,0.78-0.45,1.42-1.01,1.42c-0.56,0-1.01-0.64-1.01-1.42s0.45-1.42,1.01-1.42
	C99.88,380.32,100.33,380.96,100.33,381.74z"/>
<path class="st26" d="M110.83,389.06c0,0.78-0.45,1.42-1.01,1.42c-0.56,0-1.01-0.64-1.01-1.42s0.45-1.42,1.01-1.42
	C110.38,387.64,110.83,388.27,110.83,389.06z"/>
<path class="st26" d="M95.83,377.01c0,0.78-0.45,1.42-1.01,1.42c-0.56,0-1.01-0.64-1.01-1.42s0.45-1.42,1.01-1.42
	C95.38,375.59,95.83,376.22,95.83,377.01z"/>
<path class="st26" d="M98.22,366.21c0,0.78-0.45,1.42-1.01,1.42c-0.56,0-1.01-0.64-1.01-1.42s0.45-1.42,1.01-1.42
	C97.77,364.79,98.22,365.42,98.22,366.21z"/>
<path class="st26" d="M92.97,391.59c0,0.78-0.45,1.42-1.01,1.42c-0.56,0-1.01-0.64-1.01-1.42s0.45-1.42,1.01-1.42
	C92.51,390.17,92.97,390.8,92.97,391.59z"/>
<path class="st26" d="M103.64,384.3c0,0.39-0.45,0.71-1.01,0.71c-0.56,0-1.01-0.32-1.01-0.71c0-0.39,0.45-0.71,1.01-0.71
	S103.64,383.91,103.64,384.3z"/>
<path class="st26" d="M105.9,395.46c0,0.39-0.45,0.71-1.01,0.71c-0.56,0-1.01-0.32-1.01-0.71c0-0.39,0.45-0.71,1.01-0.71
	C105.45,394.75,105.9,395.06,105.9,395.46z"/>
<path class="st26" d="M114.29,373.91c0,0.39-0.45,0.71-1.01,0.71c-0.56,0-1.01-0.32-1.01-0.71c0-0.39,0.45-0.71,1.01-0.71
	C113.84,373.2,114.29,373.52,114.29,373.91z"/>
<polyline class="st27" points="246.65,391.18 242.5,391.18 242.5,397.1 246.65,397.09 "/>
<path class="st28" d="M242.5,397.1H138.1l-9.53-83.95c0-0.02,0-0.03,0-0.03h104.4L242.5,397.1z"/>
<rect x="246.65" y="391.18" class="st29" width="32.01" height="5.91"/>
<polygon class="st29" points="232.96,313.11 237.48,311.77 246.51,395.59 242.49,397.09 "/>
<polygon class="st30" points="128.56,313.11 133.75,311.77 237.48,311.77 232.96,313.11 "/>
<ellipse class="st31" cx="185" cy="353.73" rx="10.29" ry="8.78"/>
<path class="st32" d="M227.57,397.1H138.1l-9.53-83.95C128.88,315.02,142.37,392.85,227.57,397.1z"/>
<polygon class="st33" points="198.38,313.86 232.22,313.86 234.62,336.78 230.9,315.42 "/>
<rect x="248.43" y="100.63" transform="matrix(0.9316 -0.3635 0.3635 0.9316 -24.2346 110.6352)" class="st34" width="66.81" height="38.15"/>
<polygon class="st1" points="305.64,89.93 304.65,90.32 293.89,114.85 293.58,115.54 286.51,131.68 270.37,124.6 269.68,124.3 
	245.15,113.54 244.16,113.92 269.38,124.98 258.77,149.17 259.76,148.79 270.07,125.29 286.89,132.66 294.27,115.84 317.77,126.15 
	318.76,125.76 294.57,115.15 "/>
<path class="st34" d="M189.82,239.04v-8.89c0-11.17-9.06-20.23-20.23-20.23h-66.22c-11.17,0-20.23,9.06-20.23,20.23v8.89
	c0,11.17,9.06,20.23,20.23,20.23h47.61l33.35,9.95l-5.47-12.19C185.37,253.66,189.82,246.87,189.82,239.04z"/>
<path class="st1" d="M173.45,225.4H98.84c-1.48,0-2.68-1.2-2.68-2.68l0,0c0-1.48,1.2-2.68,2.68-2.68h74.62
	c1.48,0,2.68,1.2,2.68,2.68l0,0C176.13,224.2,174.93,225.4,173.45,225.4z"/>
<path class="st1" d="M173.45,236.77H98.84c-1.48,0-2.68-1.2-2.68-2.68l0,0c0-1.48,1.2-2.68,2.68-2.68h74.62
	c1.48,0,2.68,1.2,2.68,2.68l0,0C176.13,235.57,174.93,236.77,173.45,236.77z"/>
<path class="st1" d="M145.21,248.15H98.3c-1.18,0-2.14-0.96-2.14-2.14v-1.07c0-1.18,0.96-2.14,2.14-2.14h46.91
	c1.18,0,2.14,0.96,2.14,2.14v1.07C147.35,247.19,146.4,248.15,145.21,248.15z"/>
<path class="st35" d="M403.91,360.91v6.27c0,1.11-0.9,2.01-2.01,2.01h-0.5c-1.11,0-2.01-0.9-2.01-2.01v-6.27
	c0-0.38,0.11-0.74,0.29-1.05c0.35-0.58,0.99-0.96,1.71-0.96h0.5c0.65,0,1.22,0.3,1.58,0.78
	C403.76,360.02,403.91,360.44,403.91,360.91z"/>
<path class="st35" d="M392.04,360.91v6.27c0,1.11-0.9,2.01-2.01,2.01h-0.5c-1.11,0-2.01-0.9-2.01-2.01v-6.27
	c0-0.38,0.11-0.74,0.29-1.05c0.35-0.58,0.99-0.96,1.71-0.96h0.5c0.65,0,1.22,0.3,1.58,0.78
	C391.88,360.02,392.04,360.44,392.04,360.91z"/>
<path class="st13" d="M415.84,397.12H374.4c-2.56,0-4.31-3.29-3.37-6.31l0.89-2.86l5.66-18.18c0.55-1.76,1.88-2.91,3.37-2.91h28.33
	c1.48,0,2.82,1.15,3.37,2.91l4.8,15.42l1.75,5.62C420.15,393.83,418.4,397.12,415.84,397.12z"/>
<path class="st36" d="M392.04,360.91v1.86h-4.52v-1.86c0-0.38,0.11-0.74,0.29-1.05l3.8-0.18
	C391.88,360.02,392.04,360.44,392.04,360.91z"/>
<path class="st36" d="M403.91,360.91v1.86h-4.52v-1.86c0-0.38,0.11-0.74,0.29-1.05l3.8-0.18
	C403.76,360.02,403.91,360.44,403.91,360.91z"/>
<path class="st12" d="M415.84,397.12H374.4c-2.56,0-4.31-3.29-3.37-6.31l0.89-2.86c0.95,0.97,2.95,2.16,6.88,3.48
	c10.79,3.61,30.37,1.35,30.37,1.35s5.52-1.63,8.28-7.59l1.75,5.62C420.15,393.83,418.4,397.12,415.84,397.12z"/>
<path class="st13" d="M425.34,368.14c0,1.61-1.31,2.91-2.91,2.91h-6.21c-1.37,0-2.54-0.96-2.85-2.29c-0.55-2.38-1.98-5.88-5.72-6.76
	c-0.2-0.05-0.41-0.07-0.61-0.07h-23.71c-0.21,0-0.41,0.02-0.61,0.07c-3.74,0.88-5.18,4.38-5.72,6.76c-0.3,1.33-1.48,2.29-2.84,2.29
	h-6.21c-1.61,0-2.92-1.3-2.91-2.91c0-2.19,0.29-5.26,1.6-7.97c2.09-4.34,8.06-5.47,9.31-5.66c0.14-0.02,0.29-0.03,0.43-0.03H414
	c0.15,0,0.29,0.01,0.43,0.03c1.25,0.19,7.21,1.32,9.3,5.66C425.05,362.88,425.34,365.95,425.34,368.14z"/>
<path class="st12" d="M421.95,371.05h-5.73c-1.37,0-2.54-0.96-2.85-2.29c-0.55-2.38-1.98-5.88-5.72-6.76
	c-0.2-0.05-0.41-0.07-0.61-0.07h-23.71c-0.21,0-0.41,0.02-0.61,0.07c-3.74,0.88-5.18,4.38-5.72,6.76c-0.3,1.33-1.48,2.29-2.84,2.29
	h-4.12c0.33,0,6.25-0.75,6.47-5.38c0.22-4.62,7.47-5.44,14.39-5.14s16.17-0.96,18.74,0c2.57,0.97,4.35,3.67,4.91,6.33
	c0.56,2.67,5.13,3.91,7.03,3.96C421.79,370.82,421.91,370.9,421.95,371.05z"/>
<path class="st37" d="M366.58,362.19c0,0,1.44-6.34,9.36-7.02C375.94,355.17,369.91,356.7,366.58,362.19z"/>
<path class="st37" d="M377.05,374.28l1.32-4.62c0,0,0.36-1.98,2.76-1.98s6.06,0,6.06,0l-5.82,0.96c0,0-2.04,0.66-2.4,1.62
	C378.61,371.22,377.05,374.28,377.05,374.28z"/>
<path class="st12" d="M393.18,376.1h-5.8c-0.29,0-0.52-0.23-0.52-0.52v-1.75c0-0.29,0.23-0.52,0.52-0.52h5.8
	c0.29,0,0.52,0.23,0.52,0.52v1.75C393.7,375.87,393.47,376.1,393.18,376.1z"/>
<path class="st12" d="M403.9,376.1h-5.8c-0.29,0-0.52-0.23-0.52-0.52v-1.75c0-0.29,0.23-0.52,0.52-0.52h5.8
	c0.29,0,0.52,0.23,0.52,0.52v1.75C404.41,375.87,404.18,376.1,403.9,376.1z"/>
<path class="st12" d="M393.18,380.72h-5.8c-0.29,0-0.52-0.23-0.52-0.52v-1.76c0-0.29,0.23-0.52,0.52-0.52h5.8
	c0.29,0,0.52,0.23,0.52,0.52v1.76C393.7,380.49,393.47,380.72,393.18,380.72z"/>
<path class="st12" d="M403.9,380.72h-5.8c-0.29,0-0.52-0.23-0.52-0.52v-1.76c0-0.29,0.23-0.52,0.52-0.52h5.8
	c0.29,0,0.52,0.23,0.52,0.52v1.76C404.41,380.49,404.18,380.72,403.9,380.72z"/>
<path class="st12" d="M393.18,385.34h-5.8c-0.29,0-0.52-0.23-0.52-0.52v-1.76c0-0.29,0.23-0.52,0.52-0.52h5.8
	c0.29,0,0.52,0.23,0.52,0.52v1.76C393.7,385.11,393.47,385.34,393.18,385.34z"/>
<path class="st12" d="M403.9,385.34h-5.8c-0.29,0-0.52-0.23-0.52-0.52v-1.76c0-0.29,0.23-0.52,0.52-0.52h5.8
	c0.29,0,0.52,0.23,0.52,0.52v1.76C404.41,385.11,404.18,385.34,403.9,385.34z"/>
<ellipse class="st34" cx="386" cy="202.06" rx="30.21" ry="30.21"/>
<path class="st1" d="M402.09,218.87L402.09,218.87L402.09,218.87c-2.24,2.32-6.27,2.71-10.98,1.45c-4.36-1.17-9.29-3.75-13.92-7.55
	c-4.62-3.8-8.12-8.15-10.11-12.19c-2.15-4.38-2.54-8.41-0.71-11.05l0,0l0,0c1.05-1.1,2.36-1.81,3.76-2.12
	c1.29-0.29,2.66-0.24,3.94,0.16c0.63,0.2,1.15,0.67,1.41,1.28c0.79,1.81,1.89,3.69,3.28,5.57c0.39,0.52,0.53,1.19,0.4,1.83
	c-0.24,1.16-0.75,2.28-1.56,3.26c0,0.01-0.01,0.01-0.01,0.02c-0.74,0.9-0.74,2.2,0.06,3.06c1.33,1.44,2.83,2.85,4.46,4.19
	s3.31,2.53,4.98,3.56c0.99,0.61,2.27,0.37,3.01-0.54c0-0.01,0.01-0.01,0.01-0.02c0.81-0.98,1.81-1.7,2.9-2.16
	c0.6-0.25,1.28-0.24,1.87,0.04c2.11,0.99,4.17,1.71,6.1,2.14c0.65,0.14,1.21,0.55,1.53,1.14c0.65,1.18,0.96,2.51,0.92,3.84
	C403.41,216.2,402.97,217.63,402.09,218.87z"/>
<path class="st1" d="M397.05,202.73c-0.12-0.1-0.2-0.24-0.21-0.4c-0.15-1.56-0.6-3.06-1.32-4.44c-0.75-1.43-1.77-2.69-3.03-3.72
	c-1.26-1.04-2.69-1.79-4.24-2.25c-1.5-0.44-3.05-0.59-4.62-0.44c-0.32,0.03-0.61-0.2-0.64-0.53c-0.03-0.32,0.2-0.61,0.53-0.64
	c1.71-0.17,3.42-0.01,5.06,0.48c1.7,0.5,3.27,1.34,4.65,2.47c1.38,1.14,2.5,2.51,3.33,4.08c0.8,1.52,1.29,3.16,1.45,4.87
	c0.03,0.32-0.2,0.61-0.53,0.64C397.32,202.87,397.17,202.82,397.05,202.73z"/>
<path class="st1" d="M400.63,202.38c-0.12-0.1-0.2-0.24-0.21-0.4c-0.2-2.03-0.78-3.97-1.72-5.76c-0.97-1.86-2.3-3.48-3.93-4.83
	c-1.64-1.34-3.49-2.33-5.5-2.92c-1.94-0.58-3.96-0.77-5.99-0.57c-0.32,0.03-0.61-0.2-0.64-0.53c-0.03-0.32,0.2-0.61,0.53-0.64
	c2.18-0.21,4.34-0.01,6.43,0.61c2.16,0.64,4.15,1.7,5.91,3.14s3.18,3.19,4.23,5.19c1.01,1.93,1.63,4.01,1.85,6.19
	c0.03,0.32-0.2,0.61-0.53,0.64C400.89,202.52,400.74,202.47,400.63,202.38z"/>
<path class="st1" d="M403.92,202.05c-0.12-0.1-0.2-0.23-0.21-0.4c-0.24-2.46-0.94-4.8-2.08-6.98c-1.18-2.25-2.78-4.22-4.76-5.85
	s-4.22-2.82-6.66-3.54c-2.36-0.7-4.79-0.93-7.25-0.69c-0.32,0.03-0.61-0.2-0.64-0.53c-0.03-0.32,0.2-0.61,0.53-0.64
	c2.61-0.25,5.2-0.01,7.7,0.73c2.59,0.77,4.97,2.03,7.07,3.76s3.81,3.82,5.06,6.21c1.21,2.31,1.95,4.8,2.21,7.41
	c0.03,0.32-0.2,0.61-0.53,0.64C404.19,202.2,404.04,202.15,403.92,202.05z"/>
<path class="st38" d="M451.46,409.34H48.75c-1.68,0-3.05-1.36-3.05-3.05v-6.91c0-1.68,1.36-3.05,3.05-3.05h402.71
	c1.68,0,3.05,1.36,3.05,3.05v6.91C454.51,407.97,453.14,409.34,451.46,409.34z"/>
</svg>
