<?xml version="1.0" encoding="utf-8"?>
<!-- Generator: Adobe Illustrator 25.2.1, SVG Export Plug-In . SVG Version: 6.00 Build 0)  -->
<svg version="1.1" id="Layer_1" xmlns="http://www.w3.org/2000/svg" xmlns:xlink="http://www.w3.org/1999/xlink" x="0px" y="0px"
	 viewBox="0 0 200 200" style="enable-background:new 0 0 200 200;" xml:space="preserve">
<style type="text/css">
	.st0{fill:#62153A;}
	.st1{fill:#ECD4DF;}
</style>
<g>
	<path class="st0" d="M35.9-157.6c8-1.7,14.2-2.1,20.3-1.1c4.6,0.8,8.9,2.6,12.8,5.5c5.2,3.9,9.4,8,12.8,12.5
		c0.8-0.4,1.5-0.7,2.3-1.1c1.1-0.4,2.2-0.8,3.3-1.2v0c0.3,0,0.6-0.1,0.9-0.2c2.4-0.5,4.6-1.3,7.1-1.7c0.6-0.1,1.2-0.2,1.8-0.4
		c9.2-0.4,16.5,3.9,21.1,12.6c1.7,3.2,2.6,6.4,3.4,9.8c0.3-0.5,0.5-1,0.8-1.5c2.6-4.6,6.1-7.8,10.6-9.3c4-1.4,8.4-1.1,12.8,0.9
		c5.1,2.2,9.1,5.6,12.4,8.6l0.4,0.4c2.5,2.2,4.8,4.3,7.4,5.6c4.1,2.2,8.7,2.5,14.6,1.1c4-1,7.9-2.6,12.1-4.2c1.2-0.5,2.4-1,3.6-1.4
		c4.1-1.6,8.3-3.1,12.4-4.4c-5.2-50.4-47.7-89.7-99.5-89.7c-43.2,0-80,27.4-94,65.7C22.8-154.2,29.4-156.2,35.9-157.6z"/>
	<path class="st0" d="M195.2-109.9c-6.4,2.7-11.6,4.2-16.6,4.9c-8.9,1.2-16.9-1.2-24.1-7.1c-1-0.8-2-1.7-3-2.6
		c-2-1.7-3.9-3.3-5.8-4.8c-1.6-1.2-3.5-2.3-5.4-3c-3.1-1.3-5.3,0.3-6.5,1.9c-1.6,2-2.8,4.3-3.6,7c-1,3.2-1.9,6.4-2.7,9.6
		c-0.3,1.3-0.7,2.6-1,3.9c-0.1,0.5-0.3,1.4-0.9,2.3c-0.2,0.3-0.5,0.6-0.7,0.9c-0.4,0.3-0.9,0.7-1.3,1.1c-1.7,0.1-3.4,0.2-5.1,0
		c-0.3-0.1-0.6-0.1-0.8-0.2c0,0,0,0,0,0c0,0-0.1,0-0.1-0.1c-0.2-0.1-0.4-0.2-0.6-0.3l-0.3-0.3c-0.3-0.3-1.2-1.3-1.6-2.9
		c-0.6-2.6-1.2-5.2-1.8-7.8c-0.4-1.7-0.7-3.4-1.1-5.1c-0.8-3.6-1.6-7.3-2.4-10.9c-0.6-2.3-1.6-4.5-3.2-6.5c-2.2-2.8-4.8-4.1-8.5-4
		l-3.6,0.7c-2.4,0.5-4.7,1.4-6.7,2.4c0.3,0.6,0.5,1.2,0.7,1.9c4.4,12,4.2,24.4-0.8,37c-1.8,4.6-3.8,8-6.2,10.8
		c-1.6,1.9-3.3,3.4-5.1,4.5c-1.9,1.2-4,1.9-6,1.9c-1,0-2-0.2-3-0.5c-2.9-1-5.1-3.2-6.3-6.4c-1-2.6-1.8-5.5-2.3-8.6
		c-1.6-9.4-0.9-18.5,2.1-27c2.4-6.7,6.2-12.4,11.4-17c0,0,0-0.1-0.1-0.1c-3-4-6.7-7.4-11.4-10.6c-2.4-1.6-5.4-2.5-9.1-2.7
		c-7.8-0.4-15.2,1.5-22,3.7c-6.2,1.9-12.3,4.3-18.4,6.9c-1.3,6.5-2,13.2-2,20.1c0,55.2,44.8,100,100,100c54.7,0,99.1-43.9,100-98.3
		C204.6-113.7,200-111.9,195.2-109.9z"/>
	<path class="st0" d="M77.9-123.6c-2.1,2.2-3.8,4.8-5,7.6c-2.9,6.3-4,13.2-3.2,21c0.3,3.1,0.8,5.7,1.6,8c0.9-0.7,1.7-1.8,2.6-3.3
		c5.3-8.9,7-18,5.4-28l0,0C79-120,78.5-121.8,77.9-123.6z"/>
</g>
<g>
	<path class="st1" d="M22.1,268.5c5.6,0.9,10.9,3.2,15.7,6.7c8.3,6.1,14.6,12.8,19.4,20.1c0.3-0.2,0.6-0.3,0.9-0.5
		c1.9-1,3.9-2.1,5.9-2.9c2.4-1,4.8-1.7,7.2-2.5c0.2-0.1,0.5-0.1,0.7-0.2v-1l1.8-0.2c0.6-0.1,1.2-0.1,1.7-0.2
		c1.3-0.2,2.6-0.3,3.9-0.4c11.6-0.9,20.3,4.1,25.9,14.8c2.8,5.2,4,10.9,5.2,16.6c0.9,4.3,1.8,8.6,2.8,13.1
		c1.6-5.9,3.8-12.2,7.1-18.1c3-5.4,6.9-8.9,12-10.6c4.4-1.5,9.1-1.2,14.2,1.1c5.8,2.5,10.6,6.3,16,11.1l0.6,0.5
		c3.7,3.3,7.2,6.4,11.4,8.6c6.9,3.6,14.5,4.3,24,2c2.5-0.6,5-1.4,7.5-2.2c0-0.8,0-1.7,0-2.5c0-55.2-44.8-100-100-100
		c-35.6,0-66.8,18.6-84.5,46.5C21.7,268.5,21.9,268.5,22.1,268.5z"/>
	<path class="st1" d="M41.6,321c-4.5,9.7-6.2,20.3-5,32.2c0.6,5.5,1.6,10.2,3.2,14.3c0.4,0.9,1,2.2,2.1,2.5c1.1,0.4,2.4-0.1,3.3-0.6
		c2.6-1.5,4.9-3.8,7-7.4c7.9-13.3,10.7-27.7,8.2-42.7c-0.9-5.3-2.6-10.4-5.1-15.5C49.3,308.4,44.7,314.2,41.6,321z"/>
	<path class="st1" d="M193.7,333.5c-10.9,1.5-20.9-1.5-29.7-8.8c-1.4-1.2-2.8-2.3-4.1-3.5c-2.7-2.3-5.5-4.8-8.4-6.9
		c-2.7-2-5.7-3.7-8.7-4.9c-5.6-2.3-11.3-0.7-15.2,4.3c-2.6,3.3-4.6,7.1-5.9,11.5c-1.4,4.5-2.6,9.2-3.9,13.7c-0.5,1.9-1,3.8-1.5,5.7
		c0,0.3-0.1,0.8-0.5,1.3c-0.3,0.4-0.5,0.7-0.8,1l-1.9,2.2l-1.5-1.9c-0.1-0.1-0.1-0.2-0.2-0.2c-0.4-0.4-0.9-0.9-1.1-1.8
		c-0.8-3.5-1.6-7-2.4-10.5l-0.1-0.5c-0.5-2.3-1-4.7-1.5-7c-1.1-5-2.2-10.3-3.5-15.4c-1-4-2.8-7.7-5.4-11.1
		c-4.8-6.1-11.2-8.5-19.7-7.3l-0.8,0.1v0.4l-1.6,0.3c-5.1,1-9.7,3.3-13.6,5.3c-0.5,0.3-1,0.6-1.6,0.9c0.2,0.3,0.3,0.7,0.5,1
		c0.9,1.8,1.7,3.7,2.5,5.7c5.7,15.5,5.4,31.7-1,48.2c-2.3,5.8-4.7,10.1-7.8,13.6c-1.9,2.2-3.9,4-6,5.3c-1.8,1.2-3.8,1.8-5.6,1.8
		c-0.9,0-1.7-0.1-2.6-0.4c-2.5-0.8-4.5-2.9-5.6-5.9c-1.3-3.4-2.3-7.1-3-11.1c-2.1-12.3-1.2-24.2,2.8-35.2
		c3.6-10.1,9.7-18.4,18.1-24.7c-0.1-0.1-0.1-0.2-0.2-0.3c-0.9-1.4-1.8-2.7-2.7-3.9c-4.6-6-10.2-11.3-17.2-16
		c-3.8-2.6-8.4-4.1-13.9-4.6C10.4,288.2,6,304.5,6,322c0,55.2,44.8,100,100,100c52.3,0,95.2-40.1,99.6-91.2
		C201.4,332,197.5,332.9,193.7,333.5z"/>
</g>
<path class="st1" d="M367.4,97.4c0,0.1,0.1,0.1,0.1,0.2c-0.3-0.6-1.1-2-2.6-3.2c-1.6-1.3-3.2-1.8-4-2c-1.9-0.6-3.9-1.2-5.8-1.8
	c-4.5-1.5-9.3-3-14.1-4.2c-1.9-0.5-3.8-1-5.7-1.5c-13.9-3.6-28.4-7.3-43.4-8.7c-2.6-0.2-5.1-0.3-7.6-0.4c-0.4,0-0.7,0-1.1,0
	c-1-0.3-2-0.4-3.1-0.3c-0.2,0-0.4,0-0.6,0.1l-0.1,0c-8.3,0-16.7,0.5-25,1.7c-17,2.3-34.5,7-51.9,13.9c-1.5,0.6-2.9,1.2-4.4,1.8
	c-4.9,2-9.5,3.9-14.3,5c-6.7,1.6-11.7,1.2-16.2-1.2c-2.9-1.5-5.6-4-8.5-6.5l-0.5-0.4c-4.5-4-9.4-8-15.5-10.7
	c-5.9-2.6-11.5-3-16.9-1.1c-5.1,1.7-9.2,5-12.4,9.8c-0.8-2.5-1.7-5.1-3.1-7.6c-6.1-11.6-16-17.2-28.6-16.2c-1.3,0.1-2.5,0.3-3.7,0.4
	c-0.5,0.1-0.9,0.1-1.4,0.2c-1.5,0.2-3,0.8-4.1,1.7c-1.9,0.6-3.9,1.3-5.9,2.1c-0.5,0.2-1,0.4-1.5,0.6c-4-5.1-8.9-9.8-14.9-14.3
	c-5-3.7-10.5-6.1-16.4-7c-9.8-1.6-19.1,0-25.3,1.3c-10.5,2.3-21.2,5.9-34.8,11.8c-6.9,3-13.9,6-20.6,9c-5.7,2.5-11.6,5.1-17.4,7.6
	c-5.5,2.4-11.4,4.8-17.4,5.9c-4.6,0.9-8.2,0.6-11.3-1c-3.5-1.8-5.9-4.9-7.7-9.9c-0.3-0.8-0.5-1.9-0.8-3c-0.2-0.9-0.4-1.9-0.7-2.9
	c-0.6-2.1-1.8-3.5-2.5-4.2c-1.8-2.1-4.4-3.2-7.2-2.9c-2.8,0.3-5.3,2-6.5,4.6l-0.2,0.3c-0.2,0.4-0.4,0.8-0.6,1.2
	c-0.5,1.2-1,3-0.5,5.3c1.1,6,3.1,11.2,6.1,15.8c5.7,9,14.3,14.1,24.6,14.8c6.9,0.5,13.9-0.7,21.3-3.7c9.3-3.8,19.4-8,31.6-13.3
	l4.1-1.8c11.5-5.1,22.4-9.8,33.9-13.4c8.1-2.5,16.9-4.8,25.9-4.3c4.1,0.2,7.4,1.2,10,3c4.9,3.4,9,7,12.3,11.1
	c-5.8,5.5-10.1,12.3-12.9,20.1c-3.8,10.6-4.7,21.9-2.7,33.7c0.7,3.8,1.6,7.5,2.9,10.8c1.7,4.4,4.8,7.6,8.9,8.9
	c1.4,0.5,2.8,0.7,4.3,0.7c2.8,0,5.6-0.9,8.3-2.6c2.3-1.5,4.5-3.4,6.6-5.8c4.1-4.7,6.4-10,7.8-13.6c6.2-15.7,6.5-31.2,0.9-46.2
	c-0.1-0.2-0.1-0.4-0.2-0.6c1.9-0.8,3.9-1.6,6-2c0.7-0.1,1.3-0.4,2-0.7c6.2-0.8,8.9,1.5,10.7,3.9c1.7,2.1,2.8,4.5,3.4,7.1
	c1,4.3,2,8.8,2.9,13.1c0.4,2,0.9,4.1,1.3,6.1l0.1,0.4c0.7,3,1.3,6.1,2.1,9.1c0.6,2.4,1.9,3.8,2.6,4.5c1.5,1.8,3.8,2.8,6.1,2.8
	c2.5,0,4.8-1.1,6.4-3l0.2-0.2c0.3-0.3,0.7-0.8,1-1.3c1-1.4,1.4-2.8,1.5-3.6c0.4-1.5,0.8-3.1,1.2-4.6c1.1-4,2.1-7.8,3.3-11.6
	c0.9-3,2.3-5.6,4-7.8c2.4-3,4.8-2,5.6-1.7c0,0,0,0,0,0c2.1,0.9,4.2,2,6.1,3.4c2.3,1.7,4.6,3.7,6.9,5.7c1.2,1,2.4,2.1,3.7,3.1
	c9.1,7.6,19.4,10.6,30.6,9.1c6.3-0.9,12.7-2.7,20.6-6.1c11.9-5,22.9-8.7,33.8-11.4c11.3-2.8,21.4-4.4,31-5c3-0.2,6.1-0.3,9.2-0.4
	c1.3,0,2.6-0.1,4-0.1c1,0.1,1.9,0.1,2.9,0.2c2.5,0.1,4.8,0.3,7.1,0.5c7.2,0.6,14.6,2.1,21.4,3.7c12.7,2.9,25.9,6,38.6,10.1
	c0.8,0.3,1.7,0.6,2.7,1c1,0.4,2,0.8,3.1,1.2c2.8,0.9,5.1,0.2,6.1-0.1c2.5-0.7,4.5-2.4,5.5-4.8C369.1,102.5,368.8,99.7,367.4,97.4z
	 M55.8,101.9c1-2.1,2.1-4.1,3.5-5.9c0.2,0.9,0.4,1.8,0.5,2.7c1.9,11.6-0.2,22.2-6.3,32.5c-0.2,0.3-0.4,0.6-0.5,0.9
	c-0.4-1.8-0.7-3.7-0.9-5.8C51.2,117.2,52.4,109.3,55.8,101.9z"/>
</svg>
